<?xml version="1.0" encoding="utf-8" standalone="no"?>
<!DOCTYPE svg PUBLIC "-//W3C//DTD SVG 1.1//EN"
  "http://www.w3.org/Graphics/SVG/1.1/DTD/svg11.dtd">
<!-- Created with matplotlib (http://matplotlib.org/) -->
<svg height="197pt" version="1.1" viewBox="0 0 196 197" width="196pt" xmlns="http://www.w3.org/2000/svg" xmlns:xlink="http://www.w3.org/1999/xlink">
 <defs>
  <style type="text/css">
*{stroke-linecap:butt;stroke-linejoin:round;stroke-miterlimit:100000;}
  </style>
 </defs>
 <g id="figure_1">
  <g id="patch_1">
   <path d="M 0 197.906148 
L 196.4829 197.906148 
L 196.4829 0 
L 0 0 
z
" style="fill:#ffffff;"/>
  </g>
  <g id="axes_1">
   <g id="patch_2">
    <path d="M 189.282899 99.041477 
C 189.282899 85.29032 186.166234 71.71633 180.167778 59.342453 
C 174.169321 46.968576 165.443639 36.113656 154.648306 27.595728 
L 98.274899 99.041477 
L 189.282899 99.041477 
z
" style="fill:#ffffff;stroke:#000000;stroke-linejoin:miter;"/>
   </g>
   <g id="patch_3">
    <path d="M 154.648306 27.595728 
C 143.843619 19.07042 131.244465 13.106118 117.801936 10.153059 
C 104.359407 7.2 90.420487 7.334409 77.037403 10.54614 
L 98.274899 99.041477 
L 154.648306 27.595728 
z
" style="fill:#ffffff;stroke:#000000;stroke-linejoin:miter;"/>
   </g>
   <g id="patch_4">
    <path d="M 77.037403 10.54614 
C 69.295107 12.404169 61.830015 15.27023 54.833529 19.070836 
C 47.837043 22.871443 41.369476 27.573833 35.596652 33.057438 
L 98.274899 99.041477 
L 77.037403 10.54614 
z
" style="fill:#ffffff;stroke:#000000;stroke-linejoin:miter;"/>
   </g>
   <g id="patch_5">
    <path d="M 35.596652 33.057438 
C 28.783904 39.528868 23.014317 47.016543 18.493316 55.253865 
C 13.972314 63.491187 10.754198 72.379221 8.953549 81.601509 
L 98.274899 99.041477 
L 35.596652 33.057438 
z
" style="fill:#ffffff;stroke:#000000;stroke-linejoin:miter;"/>
   </g>
   <g id="patch_6">
    <path d="M 8.953549 81.601509 
C 8.199504 85.463462 7.696719 89.370257 7.448359 93.29729 
C 7.2 97.224323 7.206589 101.163333 7.468086 105.089513 
L 98.274899 99.041477 
L 8.953549 81.601509 
z
" style="fill:#ffffff;stroke:#000000;stroke-linejoin:miter;"/>
   </g>
   <g id="patch_7">
    <path d="M 7.468086 105.089513 
C 8.267723 117.095469 11.440515 128.824495 16.802443 139.596316 
C 22.164371 150.368137 29.609729 159.970393 38.706689 167.84616 
C 47.80365 175.721927 58.372873 181.71594 69.801352 185.480549 
C 81.22983 189.245158 93.292259 190.706148 105.289024 189.77878 
L 98.274899 99.041477 
L 7.468086 105.089513 
z
" style="fill:#ffffff;stroke:#000000;stroke-linejoin:miter;"/>
   </g>
   <g id="patch_8">
    <path d="M 105.289024 189.77878 
C 110.923949 189.343192 116.506066 188.383644 121.962995 186.912577 
C 127.419924 185.441511 132.727975 183.465312 137.81832 181.009605 
L 98.274899 99.041477 
L 105.289024 189.77878 
z
" style="fill:#ffffff;stroke:#000000;stroke-linejoin:miter;"/>
   </g>
   <g id="patch_9">
    <path d="M 137.81832 181.009605 
C 144.397378 177.835707 150.57045 173.881233 156.204165 169.231621 
C 161.837879 164.582009 166.891368 159.270988 171.255447 153.413306 
L 98.274899 99.041477 
L 137.81832 181.009605 
z
" style="fill:#ffffff;stroke:#000000;stroke-linejoin:miter;"/>
   </g>
   <g id="patch_10">
    <path d="M 171.255447 153.413306 
C 177.070236 145.60841 181.595514 136.921014 184.658549 127.682725 
C 187.721584 118.444436 189.2829 108.774313 189.282899 99.041473 
L 98.274899 99.041477 
L 171.255447 153.413306 
z
" style="fill:#ffffff;stroke:#000000;stroke-linejoin:miter;"/>
   </g>
   <g id="matplotlib.axis_1"/>
   <g id="matplotlib.axis_2"/>
   <g id="text_1">
    <!-- I -->
    <defs>
     <path d="M 24.703125 5.171875 
L 33.984375 5.171875 
L 33.984375 0 
L 5.515625 0 
L 5.515625 5.171875 
L 14.796875 5.171875 
L 14.796875 67.671875 
L 5.515625 67.671875 
L 5.515625 72.90625 
L 33.984375 72.90625 
L 33.984375 67.671875 
L 24.703125 67.671875 
z
" id="BitstreamVeraSerif-Roman-49"/>
    </defs>
    <g transform="translate(161.419201932 70.5935077411)scale(0.12 -0.12)">
     <use xlink:href="#BitstreamVeraSerif-Roman-49"/>
    </g>
   </g>
   <g id="text_2">
    <!-- I6 -->
    <defs>
     <path d="M 32.71875 3.421875 
Q 39.59375 3.421875 43.296875 8.46875 
Q 47.015625 13.53125 47.015625 23 
Q 47.015625 32.46875 43.296875 37.515625 
Q 39.59375 42.578125 32.71875 42.578125 
Q 25.734375 42.578125 22.0625 37.6875 
Q 18.40625 32.8125 18.40625 23.578125 
Q 18.40625 13.875 22.109375 8.640625 
Q 25.828125 3.421875 32.71875 3.421875 
M 16.796875 40.140625 
Q 20.125 43.796875 24.3125 45.59375 
Q 28.515625 47.40625 33.796875 47.40625 
Q 44.671875 47.40625 51 40.859375 
Q 57.328125 34.328125 57.328125 23 
Q 57.328125 11.921875 50.515625 5.25 
Q 43.703125 -1.421875 32.328125 -1.421875 
Q 19.96875 -1.421875 13.328125 7.78125 
Q 6.6875 17 6.6875 34.078125 
Q 6.6875 53.21875 14.546875 63.71875 
Q 22.40625 74.21875 36.71875 74.21875 
Q 40.578125 74.21875 44.828125 73.484375 
Q 49.078125 72.75 53.515625 71.296875 
L 53.515625 59.28125 
L 48 59.28125 
Q 47.40625 64.203125 44.234375 66.796875 
Q 41.0625 69.390625 35.6875 69.390625 
Q 26.21875 69.390625 21.578125 62.203125 
Q 16.9375 55.03125 16.796875 40.140625 
" id="BitstreamVeraSerif-Roman-36"/>
    </defs>
    <g transform="translate(107.709028577 31.2419927554)scale(0.12 -0.12)">
     <use xlink:href="#BitstreamVeraSerif-Roman-49"/>
     <use x="39.501953125" xlink:href="#BitstreamVeraSerif-Roman-36"/>
    </g>
   </g>
   <g id="text_3">
    <!-- I64 -->
    <defs>
     <path d="M 34.90625 24.703125 
L 34.90625 63.484375 
L 10.015625 24.703125 
z
M 56.390625 0 
L 23.1875 0 
L 23.1875 5.171875 
L 34.90625 5.171875 
L 34.90625 19.484375 
L 3.078125 19.484375 
L 3.078125 24.8125 
L 35.015625 74.21875 
L 44.671875 74.21875 
L 44.671875 24.703125 
L 58.59375 24.703125 
L 58.59375 19.484375 
L 44.671875 19.484375 
L 44.671875 5.171875 
L 56.390625 5.171875 
z
" id="BitstreamVeraSerif-Roman-34"/>
    </defs>
    <g transform="translate(53.5168031356 38.3762146082)scale(0.12 -0.12)">
     <use xlink:href="#BitstreamVeraSerif-Roman-49"/>
     <use x="39.501953125" xlink:href="#BitstreamVeraSerif-Roman-36"/>
     <use x="103.125" xlink:href="#BitstreamVeraSerif-Roman-34"/>
    </g>
   </g>
   <g id="text_4">
    <!-- ii -->
    <defs>
     <path d="M 9.71875 68.015625 
Q 9.71875 70.265625 11.34375 71.921875 
Q 12.984375 73.578125 15.28125 73.578125 
Q 17.53125 73.578125 19.15625 71.921875 
Q 20.796875 70.265625 20.796875 68.015625 
Q 20.796875 65.71875 19.1875 64.109375 
Q 17.578125 62.5 15.28125 62.5 
Q 12.984375 62.5 11.34375 64.109375 
Q 9.71875 65.71875 9.71875 68.015625 
M 21.1875 5.171875 
L 29.6875 5.171875 
L 29.6875 0 
L 3.609375 0 
L 3.609375 5.171875 
L 12.203125 5.171875 
L 12.203125 46.6875 
L 3.609375 46.6875 
L 3.609375 51.90625 
L 21.1875 51.90625 
z
" id="BitstreamVeraSerif-Roman-69"/>
    </defs>
    <g transform="translate(30.6115074557 67.3226375756)scale(0.12 -0.12)">
     <use xlink:href="#BitstreamVeraSerif-Roman-69"/>
     <use x="31.982421875" xlink:href="#BitstreamVeraSerif-Roman-69"/>
    </g>
   </g>
   <g id="text_5">
    <!-- iii -->
    <g transform="translate(19.8564797636 97.757377694)scale(0.12 -0.12)">
     <use xlink:href="#BitstreamVeraSerif-Roman-69"/>
     <use x="31.982421875" xlink:href="#BitstreamVeraSerif-Roman-69"/>
     <use x="63.96484375" xlink:href="#BitstreamVeraSerif-Roman-69"/>
    </g>
   </g>
   <g id="text_6">
    <!-- V7 -->
    <defs>
     <path d="M 56.390625 67.921875 
L 27.875 0 
L 20.609375 0 
L 47.796875 64.890625 
L 14.109375 64.890625 
L 14.109375 55.90625 
L 8.40625 55.90625 
L 8.40625 72.90625 
L 56.390625 72.90625 
z
" id="BitstreamVeraSerif-Roman-37"/>
     <path d="M 17.484375 67.671875 
L 39.015625 11.71875 
L 60.5 67.671875 
L 52.296875 67.671875 
L 52.296875 72.90625 
L 73.6875 72.90625 
L 73.6875 67.671875 
L 66.609375 67.671875 
L 40.578125 0 
L 32.171875 0 
L 6.296875 67.671875 
L -0.984375 67.671875 
L -0.984375 72.90625 
L 25.59375 72.90625 
L 25.59375 67.671875 
z
" id="BitstreamVeraSerif-Roman-56"/>
    </defs>
    <g transform="translate(42.4697062174 157.396473818)scale(0.12 -0.12)">
     <use xlink:href="#BitstreamVeraSerif-Roman-56"/>
     <use x="72.216796875" xlink:href="#BitstreamVeraSerif-Roman-37"/>
    </g>
   </g>
   <g id="text_7">
    <!-- VI -->
    <g transform="translate(110.522250723 172.649607294)scale(0.12 -0.12)">
     <use xlink:href="#BitstreamVeraSerif-Roman-56"/>
     <use x="72.216796875" xlink:href="#BitstreamVeraSerif-Roman-49"/>
    </g>
   </g>
   <g id="text_8">
    <!-- vi -->
    <defs>
     <path d="M 24.703125 0 
L 5.609375 46.6875 
L -0.296875 46.6875 
L -0.296875 51.90625 
L 23.578125 51.90625 
L 23.578125 46.6875 
L 15.28125 46.6875 
L 29.890625 10.984375 
L 44.484375 46.6875 
L 36.71875 46.6875 
L 36.71875 51.90625 
L 56.203125 51.90625 
L 56.203125 46.6875 
L 50.390625 46.6875 
L 31.296875 0 
z
" id="BitstreamVeraSerif-Roman-76"/>
    </defs>
    <g transform="translate(139.309249052 158.504842419)scale(0.12 -0.12)">
     <use xlink:href="#BitstreamVeraSerif-Roman-76"/>
     <use x="56.494140625" xlink:href="#BitstreamVeraSerif-Roman-69"/>
    </g>
   </g>
   <g id="text_9">
    <!-- other -->
    <defs>
     <path d="M 10.796875 46.6875 
L 2.875 46.6875 
L 2.875 51.90625 
L 10.796875 51.90625 
L 10.796875 68.015625 
L 19.828125 68.015625 
L 19.828125 51.90625 
L 36.71875 51.90625 
L 36.71875 46.6875 
L 19.828125 46.6875 
L 19.828125 13.71875 
Q 19.828125 7.125 21.09375 5.265625 
Q 22.359375 3.421875 25.78125 3.421875 
Q 29.296875 3.421875 30.90625 5.484375 
Q 32.515625 7.5625 32.625 12.203125 
L 39.40625 12.203125 
Q 39.015625 5.125 35.546875 1.84375 
Q 32.078125 -1.421875 25 -1.421875 
Q 17.234375 -1.421875 14.015625 2.015625 
Q 10.796875 5.46875 10.796875 13.71875 
z
" id="BitstreamVeraSerif-Roman-74"/>
     <path d="M 30.078125 3.421875 
Q 37.3125 3.421875 40.984375 9.125 
Q 44.671875 14.84375 44.671875 25.984375 
Q 44.671875 37.109375 40.984375 42.796875 
Q 37.3125 48.484375 30.078125 48.484375 
Q 22.859375 48.484375 19.171875 42.796875 
Q 15.484375 37.109375 15.484375 25.984375 
Q 15.484375 14.84375 19.1875 9.125 
Q 22.90625 3.421875 30.078125 3.421875 
M 30.078125 -1.421875 
Q 18.75 -1.421875 11.859375 6.078125 
Q 4.984375 13.578125 4.984375 25.984375 
Q 4.984375 38.375 11.84375 45.84375 
Q 18.703125 53.328125 30.078125 53.328125 
Q 41.453125 53.328125 48.3125 45.84375 
Q 55.171875 38.375 55.171875 25.984375 
Q 55.171875 13.578125 48.3125 6.078125 
Q 41.453125 -1.421875 30.078125 -1.421875 
" id="BitstreamVeraSerif-Roman-6f"/>
     <path d="M 54.203125 25 
L 15.484375 25 
L 15.484375 24.609375 
Q 15.484375 14.109375 19.4375 8.765625 
Q 23.390625 3.421875 31.109375 3.421875 
Q 37.015625 3.421875 40.796875 6.515625 
Q 44.578125 9.625 46.09375 15.71875 
L 53.328125 15.71875 
Q 51.171875 7.171875 45.375 2.875 
Q 39.59375 -1.421875 30.171875 -1.421875 
Q 18.796875 -1.421875 11.890625 6.078125 
Q 4.984375 13.578125 4.984375 25.984375 
Q 4.984375 38.28125 11.765625 45.796875 
Q 18.5625 53.328125 29.59375 53.328125 
Q 41.359375 53.328125 47.65625 46.0625 
Q 53.953125 38.8125 54.203125 25 
M 43.609375 30.171875 
Q 43.3125 39.265625 39.765625 43.875 
Q 36.234375 48.484375 29.59375 48.484375 
Q 23.390625 48.484375 19.828125 43.84375 
Q 16.265625 39.203125 15.484375 30.171875 
z
" id="BitstreamVeraSerif-Roman-65"/>
     <path d="M 47.796875 52 
L 47.796875 39.015625 
L 42.625 39.015625 
Q 42.390625 42.875 40.484375 44.78125 
Q 38.578125 46.6875 34.90625 46.6875 
Q 28.265625 46.6875 24.71875 42.09375 
Q 21.1875 37.5 21.1875 28.90625 
L 21.1875 5.171875 
L 31.59375 5.171875 
L 31.59375 0 
L 4.109375 0 
L 4.109375 5.171875 
L 12.203125 5.171875 
L 12.203125 46.78125 
L 3.609375 46.78125 
L 3.609375 51.90625 
L 21.1875 51.90625 
L 21.1875 42.671875 
Q 23.828125 48.09375 27.96875 50.703125 
Q 32.125 53.328125 38.09375 53.328125 
Q 40.28125 53.328125 42.703125 52.984375 
Q 45.125 52.640625 47.796875 52 
" id="BitstreamVeraSerif-Roman-72"/>
     <path d="M 4.109375 0 
L 4.109375 5.171875 
L 12.203125 5.171875 
L 12.203125 70.796875 
L 3.609375 70.796875 
L 3.609375 75.984375 
L 21.1875 75.984375 
L 21.1875 42.671875 
Q 23.6875 47.953125 27.65625 50.640625 
Q 31.640625 53.328125 36.921875 53.328125 
Q 45.515625 53.328125 49.5625 48.390625 
Q 53.609375 43.453125 53.609375 33.015625 
L 53.609375 5.171875 
L 61.625 5.171875 
L 61.625 0 
L 36.8125 0 
L 36.8125 5.171875 
L 44.578125 5.171875 
L 44.578125 30.171875 
Q 44.578125 39.703125 42.25 43.1875 
Q 39.9375 46.6875 33.984375 46.6875 
Q 27.734375 46.6875 24.453125 42.140625 
Q 21.1875 37.59375 21.1875 28.90625 
L 21.1875 5.171875 
L 29 5.171875 
L 29 0 
z
" id="BitstreamVeraSerif-Roman-68"/>
    </defs>
    <g transform="translate(151.074944284 125.265725714)scale(0.12 -0.12)">
     <use xlink:href="#BitstreamVeraSerif-Roman-6f"/>
     <use x="60.205078125" xlink:href="#BitstreamVeraSerif-Roman-74"/>
     <use x="100.390625" xlink:href="#BitstreamVeraSerif-Roman-68"/>
     <use x="164.794921875" xlink:href="#BitstreamVeraSerif-Roman-65"/>
     <use x="223.974609375" xlink:href="#BitstreamVeraSerif-Roman-72"/>
    </g>
   </g>
  </g>
 </g>
</svg>
