<?xml version="1.0" encoding="utf-8" standalone="no"?>
<!DOCTYPE svg PUBLIC "-//W3C//DTD SVG 1.1//EN"
  "http://www.w3.org/Graphics/SVG/1.1/DTD/svg11.dtd">
<!-- Created with matplotlib (http://matplotlib.org/) -->
<svg height="197pt" version="1.1" viewBox="0 0 197 197" width="197pt" xmlns="http://www.w3.org/2000/svg" xmlns:xlink="http://www.w3.org/1999/xlink">
 <defs>
  <style type="text/css">
*{stroke-linecap:butt;stroke-linejoin:round;stroke-miterlimit:100000;}
  </style>
 </defs>
 <g id="figure_1">
  <g id="patch_1">
   <path d="M 0 197.182155 
L 197.299003 197.182155 
L 197.299003 0 
L 0 0 
z
" style="fill:#ffffff;"/>
  </g>
  <g id="axes_1">
   <g id="patch_2">
    <path d="M 190.099001 98.557728 
C 190.099001 86.356678 187.645388 74.279296 182.884414 63.045475 
C 178.123439 51.811654 171.151616 41.649122 162.384512 33.163634 
C 153.617408 24.678146 143.232747 18.041717 131.849524 13.649924 
C 120.466301 9.25813 108.315273 7.2 96.120724 7.598212 
L 99.091001 98.557728 
L 190.099001 98.557728 
z
" style="fill:#ffffff;stroke:#000000;stroke-linejoin:miter;"/>
   </g>
   <g id="patch_3">
    <path d="M 96.120724 7.598212 
C 90.985943 7.765888 85.874569 8.368061 80.841404 9.398274 
C 75.808239 10.428487 70.871335 11.883045 66.083625 13.746354 
L 99.091001 98.557728 
L 96.120724 7.598212 
z
" style="fill:#ffffff;stroke:#000000;stroke-linejoin:miter;"/>
   </g>
   <g id="patch_4">
    <path d="M 66.083625 13.746354 
C 52.480884 19.040347 40.349331 27.530035 30.716227 38.496541 
C 21.083122 49.463046 14.228263 62.587842 10.732096 76.759566 
C 7.235928 90.93129 7.2 105.738318 10.627353 119.926841 
C 14.054706 134.115365 20.845792 147.273272 30.425564 158.286396 
L 99.091001 98.557728 
L 66.083625 13.746354 
z
" style="fill:#ffffff;stroke:#000000;stroke-linejoin:miter;"/>
   </g>
   <g id="patch_5">
    <path d="M 30.425564 158.286396 
C 34.440752 162.902348 38.91118 167.101684 43.768967 170.820641 
C 48.626755 174.539598 53.847189 177.759258 59.351004 180.430731 
L 99.091001 98.557728 
L 30.425564 158.286396 
z
" style="fill:#ffffff;stroke:#000000;stroke-linejoin:miter;"/>
   </g>
   <g id="patch_6">
    <path d="M 59.351004 180.430731 
C 70.674663 185.927075 83.016429 189.014896 95.594234 189.498526 
C 108.172038 189.982155 120.714474 187.851158 132.426755 183.240569 
L 99.091001 98.557728 
L 59.351004 180.430731 
z
" style="fill:#ffffff;stroke:#000000;stroke-linejoin:miter;"/>
   </g>
   <g id="patch_7">
    <path d="M 132.426755 183.240569 
C 135.783417 181.919205 139.058548 180.399432 142.234807 178.689296 
C 145.411065 176.97916 148.482837 175.081684 151.433857 173.006916 
L 99.091001 98.557728 
L 132.426755 183.240569 
z
" style="fill:#ffffff;stroke:#000000;stroke-linejoin:miter;"/>
   </g>
   <g id="patch_8">
    <path d="M 151.433857 173.006916 
C 163.377617 164.609638 173.127092 153.460196 179.856326 140.503149 
C 186.585561 127.546102 190.099003 113.15798 190.099001 98.557717 
L 99.091001 98.557728 
L 151.433857 173.006916 
z
" style="fill:#ffffff;stroke:#000000;stroke-linejoin:miter;"/>
   </g>
   <g id="matplotlib.axis_1"/>
   <g id="matplotlib.axis_2"/>
   <g id="text_1">
    <!-- I -->
    <defs>
     <path d="M 24.703125 5.171875 
L 33.984375 5.171875 
L 33.984375 0 
L 5.515625 0 
L 5.515625 5.171875 
L 14.796875 5.171875 
L 14.796875 67.671875 
L 5.515625 67.671875 
L 5.515625 72.90625 
L 33.984375 72.90625 
L 33.984375 67.671875 
L 24.703125 67.671875 
z
" id="BitstreamVeraSerif-Roman-49"/>
    </defs>
    <g transform="translate(147.35581001 49.5537027809)scale(0.12 -0.12)">
     <use xlink:href="#BitstreamVeraSerif-Roman-49"/>
    </g>
   </g>
   <g id="text_2">
    <!-- I64 -->
    <defs>
     <path d="M 32.71875 3.421875 
Q 39.59375 3.421875 43.296875 8.46875 
Q 47.015625 13.53125 47.015625 23 
Q 47.015625 32.46875 43.296875 37.515625 
Q 39.59375 42.578125 32.71875 42.578125 
Q 25.734375 42.578125 22.0625 37.6875 
Q 18.40625 32.8125 18.40625 23.578125 
Q 18.40625 13.875 22.109375 8.640625 
Q 25.828125 3.421875 32.71875 3.421875 
M 16.796875 40.140625 
Q 20.125 43.796875 24.3125 45.59375 
Q 28.515625 47.40625 33.796875 47.40625 
Q 44.671875 47.40625 51 40.859375 
Q 57.328125 34.328125 57.328125 23 
Q 57.328125 11.921875 50.515625 5.25 
Q 43.703125 -1.421875 32.328125 -1.421875 
Q 19.96875 -1.421875 13.328125 7.78125 
Q 6.6875 17 6.6875 34.078125 
Q 6.6875 53.21875 14.546875 63.71875 
Q 22.40625 74.21875 36.71875 74.21875 
Q 40.578125 74.21875 44.828125 73.484375 
Q 49.078125 72.75 53.515625 71.296875 
L 53.515625 59.28125 
L 48 59.28125 
Q 47.40625 64.203125 44.234375 66.796875 
Q 41.0625 69.390625 35.6875 69.390625 
Q 26.21875 69.390625 21.578125 62.203125 
Q 16.9375 55.03125 16.796875 40.140625 
" id="BitstreamVeraSerif-Roman-36"/>
     <path d="M 34.90625 24.703125 
L 34.90625 63.484375 
L 10.015625 24.703125 
z
M 56.390625 0 
L 23.1875 0 
L 23.1875 5.171875 
L 34.90625 5.171875 
L 34.90625 19.484375 
L 3.078125 19.484375 
L 3.078125 24.8125 
L 35.015625 74.21875 
L 44.671875 74.21875 
L 44.671875 24.703125 
L 58.59375 24.703125 
L 58.59375 19.484375 
L 44.671875 19.484375 
L 44.671875 5.171875 
L 56.390625 5.171875 
z
" id="BitstreamVeraSerif-Roman-34"/>
    </defs>
    <g transform="translate(74.4863233933 30.5414148398)scale(0.12 -0.12)">
     <use xlink:href="#BitstreamVeraSerif-Roman-49"/>
     <use x="39.501953125" xlink:href="#BitstreamVeraSerif-Roman-36"/>
     <use x="103.125" xlink:href="#BitstreamVeraSerif-Roman-34"/>
    </g>
   </g>
   <g id="text_3">
    <!-- iii6 -->
    <defs>
     <path d="M 9.71875 68.015625 
Q 9.71875 70.265625 11.34375 71.921875 
Q 12.984375 73.578125 15.28125 73.578125 
Q 17.53125 73.578125 19.15625 71.921875 
Q 20.796875 70.265625 20.796875 68.015625 
Q 20.796875 65.71875 19.1875 64.109375 
Q 17.578125 62.5 15.28125 62.5 
Q 12.984375 62.5 11.34375 64.109375 
Q 9.71875 65.71875 9.71875 68.015625 
M 21.1875 5.171875 
L 29.6875 5.171875 
L 29.6875 0 
L 3.609375 0 
L 3.609375 5.171875 
L 12.203125 5.171875 
L 12.203125 46.6875 
L 3.609375 46.6875 
L 3.609375 51.90625 
L 21.1875 51.90625 
z
" id="BitstreamVeraSerif-Roman-69"/>
    </defs>
    <g transform="translate(18.8291893673 84.4304486155)scale(0.12 -0.12)">
     <use xlink:href="#BitstreamVeraSerif-Roman-69"/>
     <use x="31.982421875" xlink:href="#BitstreamVeraSerif-Roman-69"/>
     <use x="63.96484375" xlink:href="#BitstreamVeraSerif-Roman-69"/>
     <use x="95.947265625" xlink:href="#BitstreamVeraSerif-Roman-36"/>
    </g>
   </g>
   <g id="text_4">
    <!-- IV -->
    <defs>
     <path d="M 17.484375 67.671875 
L 39.015625 11.71875 
L 60.5 67.671875 
L 52.296875 67.671875 
L 52.296875 72.90625 
L 73.6875 72.90625 
L 73.6875 67.671875 
L 66.609375 67.671875 
L 40.578125 0 
L 32.171875 0 
L 6.296875 67.671875 
L -0.984375 67.671875 
L -0.984375 72.90625 
L 25.59375 72.90625 
L 25.59375 67.671875 
z
" id="BitstreamVeraSerif-Roman-56"/>
    </defs>
    <g transform="translate(48.1302489754 159.679308507)scale(0.12 -0.12)">
     <use xlink:href="#BitstreamVeraSerif-Roman-49"/>
     <use x="39.501953125" xlink:href="#BitstreamVeraSerif-Roman-56"/>
    </g>
   </g>
   <g id="text_5">
    <!-- V7 -->
    <defs>
     <path d="M 56.390625 67.921875 
L 27.875 0 
L 20.609375 0 
L 47.796875 64.890625 
L 14.109375 64.890625 
L 14.109375 55.90625 
L 8.40625 55.90625 
L 8.40625 72.90625 
L 56.390625 72.90625 
z
" id="BitstreamVeraSerif-Roman-37"/>
    </defs>
    <g transform="translate(88.1429623884 174.621616262)scale(0.12 -0.12)">
     <use xlink:href="#BitstreamVeraSerif-Roman-56"/>
     <use x="72.216796875" xlink:href="#BitstreamVeraSerif-Roman-37"/>
    </g>
   </g>
   <g id="text_6">
    <!-- viio6 -->
    <defs>
     <path d="M 30.078125 3.421875 
Q 37.3125 3.421875 40.984375 9.125 
Q 44.671875 14.84375 44.671875 25.984375 
Q 44.671875 37.109375 40.984375 42.796875 
Q 37.3125 48.484375 30.078125 48.484375 
Q 22.859375 48.484375 19.171875 42.796875 
Q 15.484375 37.109375 15.484375 25.984375 
Q 15.484375 14.84375 19.1875 9.125 
Q 22.90625 3.421875 30.078125 3.421875 
M 30.078125 -1.421875 
Q 18.75 -1.421875 11.859375 6.078125 
Q 4.984375 13.578125 4.984375 25.984375 
Q 4.984375 38.375 11.84375 45.84375 
Q 18.703125 53.328125 30.078125 53.328125 
Q 41.453125 53.328125 48.3125 45.84375 
Q 55.171875 38.375 55.171875 25.984375 
Q 55.171875 13.578125 48.3125 6.078125 
Q 41.453125 -1.421875 30.078125 -1.421875 
" id="BitstreamVeraSerif-Roman-6f"/>
     <path d="M 24.703125 0 
L 5.609375 46.6875 
L -0.296875 46.6875 
L -0.296875 51.90625 
L 23.578125 51.90625 
L 23.578125 46.6875 
L 15.28125 46.6875 
L 29.890625 10.984375 
L 44.484375 46.6875 
L 36.71875 46.6875 
L 36.71875 51.90625 
L 56.203125 51.90625 
L 56.203125 46.6875 
L 50.390625 46.6875 
L 31.296875 0 
z
" id="BitstreamVeraSerif-Roman-76"/>
    </defs>
    <g transform="translate(118.948233193 165.974232167)scale(0.12 -0.12)">
     <use xlink:href="#BitstreamVeraSerif-Roman-76"/>
     <use x="56.494140625" xlink:href="#BitstreamVeraSerif-Roman-69"/>
     <use x="88.4765625" xlink:href="#BitstreamVeraSerif-Roman-69"/>
     <use x="120.458984375" xlink:href="#BitstreamVeraSerif-Roman-6f"/>
     <use x="180.6640625" xlink:href="#BitstreamVeraSerif-Roman-36"/>
    </g>
   </g>
   <g id="text_7">
    <!-- other -->
    <defs>
     <path d="M 10.796875 46.6875 
L 2.875 46.6875 
L 2.875 51.90625 
L 10.796875 51.90625 
L 10.796875 68.015625 
L 19.828125 68.015625 
L 19.828125 51.90625 
L 36.71875 51.90625 
L 36.71875 46.6875 
L 19.828125 46.6875 
L 19.828125 13.71875 
Q 19.828125 7.125 21.09375 5.265625 
Q 22.359375 3.421875 25.78125 3.421875 
Q 29.296875 3.421875 30.90625 5.484375 
Q 32.515625 7.5625 32.625 12.203125 
L 39.40625 12.203125 
Q 39.015625 5.125 35.546875 1.84375 
Q 32.078125 -1.421875 25 -1.421875 
Q 17.234375 -1.421875 14.015625 2.015625 
Q 10.796875 5.46875 10.796875 13.71875 
z
" id="BitstreamVeraSerif-Roman-74"/>
     <path d="M 54.203125 25 
L 15.484375 25 
L 15.484375 24.609375 
Q 15.484375 14.109375 19.4375 8.765625 
Q 23.390625 3.421875 31.109375 3.421875 
Q 37.015625 3.421875 40.796875 6.515625 
Q 44.578125 9.625 46.09375 15.71875 
L 53.328125 15.71875 
Q 51.171875 7.171875 45.375 2.875 
Q 39.59375 -1.421875 30.171875 -1.421875 
Q 18.796875 -1.421875 11.890625 6.078125 
Q 4.984375 13.578125 4.984375 25.984375 
Q 4.984375 38.28125 11.765625 45.796875 
Q 18.5625 53.328125 29.59375 53.328125 
Q 41.359375 53.328125 47.65625 46.0625 
Q 53.953125 38.8125 54.203125 25 
M 43.609375 30.171875 
Q 43.3125 39.265625 39.765625 43.875 
Q 36.234375 48.484375 29.59375 48.484375 
Q 23.390625 48.484375 19.828125 43.84375 
Q 16.265625 39.203125 15.484375 30.171875 
z
" id="BitstreamVeraSerif-Roman-65"/>
     <path d="M 47.796875 52 
L 47.796875 39.015625 
L 42.625 39.015625 
Q 42.390625 42.875 40.484375 44.78125 
Q 38.578125 46.6875 34.90625 46.6875 
Q 28.265625 46.6875 24.71875 42.09375 
Q 21.1875 37.5 21.1875 28.90625 
L 21.1875 5.171875 
L 31.59375 5.171875 
L 31.59375 0 
L 4.109375 0 
L 4.109375 5.171875 
L 12.203125 5.171875 
L 12.203125 46.78125 
L 3.609375 46.78125 
L 3.609375 51.90625 
L 21.1875 51.90625 
L 21.1875 42.671875 
Q 23.828125 48.09375 27.96875 50.703125 
Q 32.125 53.328125 38.09375 53.328125 
Q 40.28125 53.328125 42.703125 52.984375 
Q 45.125 52.640625 47.796875 52 
" id="BitstreamVeraSerif-Roman-72"/>
     <path d="M 4.109375 0 
L 4.109375 5.171875 
L 12.203125 5.171875 
L 12.203125 70.796875 
L 3.609375 70.796875 
L 3.609375 75.984375 
L 21.1875 75.984375 
L 21.1875 42.671875 
Q 23.6875 47.953125 27.65625 50.640625 
Q 31.640625 53.328125 36.921875 53.328125 
Q 45.515625 53.328125 49.5625 48.390625 
Q 53.609375 43.453125 53.609375 33.015625 
L 53.609375 5.171875 
L 61.625 5.171875 
L 61.625 0 
L 36.8125 0 
L 36.8125 5.171875 
L 44.578125 5.171875 
L 44.578125 30.171875 
Q 44.578125 39.703125 42.25 43.1875 
Q 39.9375 46.6875 33.984375 46.6875 
Q 27.734375 46.6875 24.453125 42.140625 
Q 21.1875 37.59375 21.1875 28.90625 
L 21.1875 5.171875 
L 29 5.171875 
L 29 0 
z
" id="BitstreamVeraSerif-Roman-68"/>
    </defs>
    <g transform="translate(147.396386406 135.425314831)scale(0.12 -0.12)">
     <use xlink:href="#BitstreamVeraSerif-Roman-6f"/>
     <use x="60.205078125" xlink:href="#BitstreamVeraSerif-Roman-74"/>
     <use x="100.390625" xlink:href="#BitstreamVeraSerif-Roman-68"/>
     <use x="164.794921875" xlink:href="#BitstreamVeraSerif-Roman-65"/>
     <use x="223.974609375" xlink:href="#BitstreamVeraSerif-Roman-72"/>
    </g>
   </g>
  </g>
 </g>
</svg>
